{
	"asset":{
		"generator":"Khronos glTF Blender I/O v4.0.44",
		"version":"2.0"
	},
	"scene":0,
	"scenes":[
		{
			"name":"Scene",
			"nodes":[
				0
			]
		}
	],
	"nodes":[
		{
			"mesh":0,
			"name":"Curve",
			"scale":[
				9.566218376159668,
				9.566218376159668,
				9.566218376159668
			]
		}
	],
	"materials":[
		{
			"doubleSided":true,
			"name":"SVGMat",
			"pbrMetallicRoughness":{
				"baseColorFactor":[
					0.5313985347747803,
					0.36226460337638855,
					0.15443214774131775,
					1
				],
				"metallicFactor":0,
				"roughnessFactor":0.4000000059604645
			}
		}
	],
	"meshes":[
		{
			"name":"Curve",
			"primitives":[
				{
					"attributes":{
						"POSITION":0,
						"NORMAL":1
					},
					"indices":2,
					"material":0
				}
			]
		}
	],
	"accessors":[
		{
			"bufferView":0,
			"componentType":5126,
			"count":3841,
			"max":[
				0.06272433698177338,
				0.007193001918494701,
				0.041872113943099976
			],
			"min":[
				-0.05590039864182472,
				0,
				-0.058720916509628296
			],
			"type":"VEC3"
		},
		{
			"bufferView":1,
			"componentType":5126,
			"count":3841,
			"type":"VEC3"
		},
		{
			"bufferView":2,
			"componentType":5123,
			"count":8172,
			"type":"SCALAR"
		}
	],
	"bufferViews":[
		{
			"buffer":0,
			"byteLength":46092,
			"byteOffset":0,
			"target":34962
		},
		{
			"buffer":0,
			"byteLength":46092,
			"byteOffset":46092,
			"target":34962
		},
		{
			"buffer":0,
			"byteLength":16344,
			"byteOffset":92184,
			"target":34963
		}
	],
	"buffers":[
		{
			"byteLength":108528,
			"uri":"logo.bin"
		}
	]
}
